<svg width="16" height="16" viewBox="0 0 16 16" fill="none" xmlns="http://www.w3.org/2000/svg">
<path d="M6.23302 0.371003C7.07217 0.00185785 8.00588 -0.0951875 8.90301 0.0934941C9.80014 0.282176 10.6157 0.747107 11.235 1.423C11.656 1.882 11.948 2.415 12.139 2.977C12.282 3.398 12.402 4.15 12.359 4.871C12.281 6.193 11.721 7.279 10.96 8.187L10.833 8.339C10.763 8.42297 10.7121 8.52123 10.6841 8.62691C10.656 8.73259 10.6514 8.84313 10.6705 8.95078C10.6897 9.05844 10.7321 9.1606 10.7949 9.25012C10.8577 9.33964 10.9393 9.41434 11.034 9.469L13.243 10.744C13.9652 11.1609 14.5648 11.7606 14.9817 12.4828C15.3986 13.205 15.6181 14.0241 15.618 14.858V16H0.382019V14.857C0.382128 14.0233 0.601659 13.2043 1.01855 12.4824C1.43545 11.7604 2.03502 11.1609 2.75702 10.744L4.96602 9.469C5.06072 9.41434 5.14232 9.33964 5.20511 9.25012C5.2679 9.1606 5.31036 9.05844 5.32951 8.95078C5.34866 8.84313 5.34404 8.73259 5.31597 8.62691C5.2879 8.52123 5.23706 8.42297 5.16702 8.339L5.04102 8.187C4.28002 7.279 3.71902 6.193 3.64102 4.871C3.59802 4.15 3.71802 3.398 3.86102 2.977C4.05075 2.40166 4.35867 1.87233 4.76502 1.423C5.17602 0.975003 5.67502 0.616003 6.23302 0.371003ZM8.00002 1.5C7.59941 1.49991 7.20317 1.58317 6.83647 1.74448C6.46978 1.90579 6.14065 2.14163 5.87002 2.437C5.60492 2.73296 5.40464 3.08107 5.28202 3.459C5.20502 3.685 5.10702 4.242 5.13902 4.782C5.19302 5.703 5.57902 6.494 6.19002 7.224L6.19202 7.225L6.31902 7.378C6.52915 7.62989 6.68166 7.92469 6.76587 8.24173C6.85007 8.55876 6.86394 8.89038 6.80649 9.21334C6.74904 9.5363 6.62167 9.8428 6.4333 10.1114C6.24493 10.3799 6.00012 10.604 5.71602 10.768L3.50702 12.043C3.06553 12.298 2.69021 12.6532 2.41139 13.08C2.13258 13.5068 1.95809 13.9933 1.90202 14.5H14.098C14.042 13.9933 13.8675 13.5068 13.5886 13.08C13.3098 12.6532 12.9345 12.298 12.493 12.043L10.284 10.768C9.99992 10.604 9.7551 10.3799 9.56673 10.1114C9.37837 9.8428 9.251 9.5363 9.19355 9.21334C9.1361 8.89038 9.14997 8.55876 9.23417 8.24173C9.31838 7.92469 9.47089 7.62989 9.68102 7.378L9.80802 7.225L9.81002 7.224C10.422 6.494 10.807 5.704 10.862 4.782C10.894 4.242 10.795 3.685 10.718 3.459C10.5954 3.08107 10.3951 2.73296 10.13 2.437C9.85939 2.14163 9.53026 1.90579 9.16357 1.74448C8.79687 1.58317 8.40063 1.49991 8.00002 1.5Z" fill="#FFFEFE"/>
</svg>

