<svg width="78" height="24" viewBox="0 0 78 24" fill="none" xmlns="http://www.w3.org/2000/svg">
<path d="M18.616 10.639C14.846 8.342 8.626 8.13 5.026 9.251C4.81802 9.3152 4.59548 9.31488 4.38768 9.25008C4.17989 9.18528 3.99661 9.05904 3.862 8.888C3.72462 8.71543 3.64025 8.50671 3.61913 8.28714C3.59801 8.06758 3.64104 7.8466 3.743 7.651C3.879 7.389 4.113 7.191 4.391 7.103C8.523 5.816 15.391 6.065 19.733 8.708C19.8885 8.80478 20.0183 8.93765 20.1114 9.09533C20.2045 9.25301 20.2583 9.43083 20.268 9.6137C20.2777 9.79657 20.2431 9.97909 20.1672 10.1457C20.0913 10.3124 19.9763 10.4583 19.832 10.571C19.7176 10.659 19.5867 10.7232 19.447 10.7597C19.3074 10.7963 19.1619 10.8046 19.019 10.784C18.877 10.764 18.739 10.714 18.616 10.639V10.639ZM18.492 14.041C18.4304 14.1446 18.349 14.2351 18.2524 14.3072C18.1558 14.3793 18.0459 14.4315 17.929 14.461C17.8124 14.4896 17.6911 14.4945 17.5726 14.4752C17.454 14.456 17.3406 14.4131 17.239 14.349C14.095 12.366 9.302 11.792 5.582 12.951C5.40849 13.0046 5.22281 13.0043 5.04946 12.9502C4.87611 12.8961 4.72323 12.7908 4.611 12.648C4.4971 12.504 4.42725 12.3302 4.40986 12.1475C4.39247 11.9647 4.42829 11.7809 4.513 11.618C4.62548 11.4 4.8196 11.2354 5.053 11.16C9.301 9.837 14.583 10.478 18.193 12.755C18.4 12.8886 18.547 13.0974 18.603 13.3374C18.6589 13.5773 18.6195 13.8296 18.493 14.041H18.492ZM17.062 17.308C17.0131 17.3913 16.9481 17.4641 16.8709 17.5221C16.7936 17.5801 16.7056 17.6222 16.612 17.646C16.5186 17.6693 16.4214 17.6735 16.3264 17.6582C16.2313 17.6429 16.1404 17.6085 16.059 17.557C13.311 15.835 9.855 15.446 5.783 16.401C5.64134 16.4339 5.49301 16.4231 5.35766 16.3699C5.2223 16.3167 5.1063 16.2236 5.025 16.103C4.96974 16.023 4.93068 15.933 4.91 15.838C4.86608 15.6455 4.89909 15.4435 5.002 15.275C5.0525 15.1921 5.11887 15.1201 5.19729 15.0629C5.27572 15.0058 5.36465 14.9647 5.459 14.942C9.914 13.897 13.736 14.347 16.82 16.28C16.9852 16.3871 17.1025 16.5539 17.1474 16.7455C17.1923 16.9371 17.1614 17.1387 17.061 17.308H17.062ZM11.696 0C5.237 0 0 5.373 0 12C0 18.628 5.236 24 11.697 24C18.157 24 23.395 18.628 23.395 12C23.395 5.373 18.157 0 11.696 0H11.697H11.696ZM31.822 11.078C29.803 10.584 29.443 10.238 29.443 9.508C29.443 8.82 30.076 8.357 31.015 8.357C31.925 8.357 32.829 8.709 33.775 9.433C33.7891 9.4437 33.8052 9.45142 33.8224 9.45572C33.8396 9.46001 33.8574 9.46077 33.8749 9.45797C33.8924 9.45517 33.9091 9.44885 33.9241 9.4394C33.9391 9.42995 33.952 9.41757 33.962 9.403L34.949 7.977C34.9685 7.94856 34.9768 7.91387 34.9722 7.87968C34.9676 7.84549 34.9504 7.81423 34.924 7.792C33.797 6.864 32.528 6.414 31.044 6.414C28.864 6.414 27.341 7.756 27.341 9.677C27.341 11.737 28.656 12.465 30.926 13.029C32.858 13.486 33.184 13.869 33.184 14.553C33.184 15.31 32.525 15.782 31.464 15.782C30.284 15.782 29.323 15.374 28.248 14.418C28.2348 14.4063 28.2194 14.3973 28.2026 14.3918C28.1859 14.3862 28.1682 14.3841 28.1506 14.3856C28.133 14.3871 28.1159 14.3922 28.1003 14.4005C28.0847 14.4088 28.071 14.4202 28.06 14.434L26.954 15.784C26.9317 15.8111 26.9206 15.8456 26.923 15.8806C26.9255 15.9156 26.9412 15.9483 26.967 15.972C28.219 17.119 29.757 17.724 31.418 17.724C33.768 17.724 35.287 16.407 35.287 14.368C35.287 12.645 34.284 11.692 31.822 11.078V11.078ZM42.309 13.388C42.309 14.842 41.435 15.858 40.184 15.858C38.949 15.858 38.015 14.797 38.015 13.388C38.015 11.978 38.948 10.918 40.185 10.918C41.415 10.918 42.309 11.956 42.309 13.388V13.388ZM40.603 9.034C39.585 9.034 38.749 9.446 38.06 10.29V9.34C38.0602 9.30459 38.0465 9.27051 38.022 9.245C38.0099 9.23254 37.9954 9.22259 37.9795 9.21573C37.9635 9.20887 37.9464 9.20522 37.929 9.205H36.119C36.1016 9.20516 36.0844 9.20879 36.0685 9.21565C36.0525 9.22252 36.0381 9.2325 36.026 9.245C36.0008 9.2706 35.9868 9.30511 35.987 9.341V19.887C35.987 19.963 36.047 20.024 36.12 20.024H37.929C37.9464 20.0237 37.9636 20.0198 37.9796 20.0128C37.9956 20.0058 38.01 19.9956 38.022 19.983C38.0468 19.9572 38.0604 19.9228 38.06 19.887V16.558C38.75 17.352 39.585 17.738 40.603 17.738C42.496 17.738 44.411 16.244 44.411 13.388C44.411 10.53 42.496 9.034 40.603 9.034V9.034ZM49.323 15.873C48.026 15.873 47.049 14.805 47.049 13.387C47.049 11.965 47.992 10.932 49.293 10.932C50.598 10.932 51.581 12.001 51.581 13.419C51.581 14.841 50.632 15.873 49.323 15.873V15.873ZM49.323 9.035C46.885 9.035 44.976 10.961 44.976 13.418C44.976 15.85 46.872 17.756 49.293 17.756C51.738 17.756 53.653 15.836 53.653 13.387C53.653 10.947 51.752 9.034 49.323 9.034V9.035ZM58.858 9.205H56.868V7.117C56.8684 7.09049 56.861 7.06443 56.8468 7.04205C56.8326 7.01966 56.8122 7.00192 56.788 6.991C56.7715 6.98413 56.7538 6.98073 56.736 6.981H54.927C54.8919 6.98155 54.8585 6.99593 54.834 7.021C54.8094 7.04651 54.7958 7.08059 54.796 7.116V9.203H53.926C53.8994 9.20313 53.8736 9.21133 53.8518 9.22651C53.83 9.24169 53.8133 9.26314 53.804 9.288C53.7974 9.30453 53.794 9.32219 53.794 9.34V10.935C53.794 11.009 53.854 11.07 53.926 11.07H54.796V15.196C54.796 16.863 55.605 17.709 57.2 17.709C57.848 17.709 58.386 17.571 58.894 17.275C58.9144 17.2631 58.9314 17.246 58.9432 17.2255C58.9549 17.2049 58.9611 17.1817 58.961 17.158V15.64C58.9609 15.6171 58.9552 15.5946 58.9442 15.5745C58.9331 15.5544 58.9173 15.5374 58.898 15.525C58.8789 15.5128 58.8569 15.5059 58.8343 15.5048C58.8117 15.5038 58.7892 15.5087 58.769 15.519C58.42 15.699 58.084 15.782 57.708 15.782C57.128 15.782 56.868 15.511 56.868 14.906V11.07H58.858C58.8756 11.07 58.8929 11.0665 58.9091 11.0596C58.9252 11.0527 58.9398 11.0427 58.952 11.03C58.9772 11.0044 58.9912 10.9699 58.991 10.934V9.339C58.9911 9.30313 58.9771 9.26866 58.952 9.243C58.9398 9.23042 58.9252 9.22041 58.909 9.21354C58.8929 9.20667 58.8755 9.20309 58.858 9.203V9.204V9.205ZM65.792 9.212V8.957C65.792 8.202 66.073 7.865 66.706 7.865C67.082 7.865 67.386 7.942 67.725 8.059C67.7448 8.06536 67.7659 8.06687 67.7864 8.06339C67.807 8.05991 67.8264 8.05154 67.843 8.039C67.8604 8.02644 67.8746 8.00991 67.8843 7.99078C67.894 7.97164 67.8991 7.95047 67.899 7.929V6.365C67.8992 6.33592 67.89 6.30756 67.873 6.284C67.8564 6.26039 67.8325 6.24284 67.805 6.234C67.319 6.08232 66.8121 6.00807 66.303 6.014C64.633 6.014 63.749 6.979 63.749 8.802V9.195H62.879C62.8616 9.19522 62.8445 9.19887 62.8285 9.20573C62.8126 9.21259 62.7981 9.22254 62.786 9.235C62.7612 9.26076 62.7476 9.29525 62.748 9.331V10.934C62.748 11.009 62.807 11.07 62.88 11.07H63.75V17.434C63.75 17.509 63.808 17.569 63.881 17.569H65.69C65.762 17.569 65.821 17.509 65.821 17.434V11.07H67.511L70.097 17.432C69.803 18.101 69.514 18.234 69.12 18.234C68.801 18.234 68.466 18.136 68.122 17.944C68.1061 17.9353 68.0886 17.9299 68.0705 17.9281C68.0525 17.9264 68.0343 17.9284 68.017 17.934C67.9998 17.9401 67.984 17.9496 67.9706 17.962C67.9572 17.9744 67.9465 17.9894 67.939 18.006L67.327 19.386C67.313 19.4169 67.311 19.4519 67.3213 19.4843C67.3317 19.5166 67.3536 19.544 67.383 19.561C67.9689 19.9027 68.6368 20.0783 69.315 20.069C70.649 20.069 71.388 19.431 72.039 17.714L75.176 9.397C75.1837 9.37638 75.1865 9.35422 75.1841 9.33232C75.1816 9.31043 75.1741 9.28942 75.162 9.271C75.1503 9.25289 75.1344 9.23793 75.1155 9.22747C75.0967 9.217 75.0755 9.21135 75.054 9.211H73.171C73.1429 9.21096 73.1156 9.21985 73.093 9.23639C73.0703 9.25294 73.0535 9.27627 73.045 9.303L71.117 14.954L69.006 9.3C68.9968 9.27442 68.98 9.25227 68.9578 9.23653C68.9356 9.2208 68.9092 9.21224 68.882 9.212H65.792V9.213V9.212ZM61.772 9.204H59.963C59.9456 9.20435 59.9284 9.20815 59.9124 9.21519C59.8964 9.22223 59.882 9.23236 59.87 9.245C59.8452 9.27076 59.8316 9.30525 59.832 9.341V17.435C59.832 17.51 59.892 17.57 59.964 17.57H61.773C61.845 17.57 61.904 17.51 61.904 17.435V9.34C61.9044 9.30425 61.8908 9.26976 61.866 9.244C61.8537 9.23147 61.8391 9.22148 61.823 9.21461C61.8069 9.20775 61.7895 9.20414 61.772 9.204V9.204ZM60.876 5.519C60.7044 5.52036 60.5348 5.5558 60.3771 5.62326C60.2193 5.69073 60.0765 5.78888 59.957 5.912C59.714 6.162 59.578 6.498 59.58 6.849C59.5786 7.19886 59.7139 7.53543 59.957 7.787C60.0769 7.90984 60.2199 8.0078 60.3778 8.07524C60.5357 8.14268 60.7053 8.17828 60.877 8.18C61.223 8.178 61.554 8.037 61.797 7.787C62.04 7.537 62.176 7.2 62.174 6.849C62.174 6.114 61.593 5.519 60.878 5.519H60.876V5.519ZM76.794 10.009H76.463V10.443H76.794C76.959 10.443 77.058 10.36 77.058 10.227C77.058 10.085 76.959 10.01 76.794 10.01V10.009ZM77.009 10.628L77.369 11.145H77.065L76.742 10.671H76.463V11.145H76.209V9.775H76.804C77.114 9.775 77.319 9.938 77.319 10.211C77.3231 10.3055 77.2945 10.3986 77.238 10.4745C77.1816 10.5505 77.1007 10.6047 77.009 10.628V10.628ZM76.727 9.318C76.075 9.318 75.581 9.85 75.581 10.501C75.581 11.151 76.071 11.676 76.72 11.676C77.372 11.676 77.867 11.144 77.867 10.493C77.867 9.843 77.375 9.319 76.727 9.319V9.318ZM76.72 11.806C76.5513 11.8058 76.3843 11.7718 76.229 11.7058C76.0737 11.6398 75.9333 11.5433 75.816 11.422C75.5763 11.1762 75.444 10.8453 75.448 10.502C75.448 9.785 76.011 9.188 76.727 9.188C76.8956 9.1883 77.0623 9.22244 77.2175 9.28841C77.3726 9.35437 77.5129 9.4508 77.63 9.572C77.749 9.69372 77.8429 9.83772 77.9062 9.99576C77.9695 10.1538 78.0011 10.3228 77.999 10.493C77.999 11.21 77.436 11.807 76.72 11.807V11.806Z" fill="black"/>
</svg>
