<svg width="12" height="10" viewBox="0 0 12 20" fill="none" xmlns="http://www.w3.org/2000/svg">
<path d="M10.957 0.793C11.1445 0.980528 11.2498 1.23484 11.2498 1.5C11.2498 1.76516 11.1445 2.01947 10.957 2.207L3.164 10L10.957 17.793C11.0525 17.8852 11.1287 17.9956 11.1811 18.1176C11.2335 18.2396 11.2611 18.3708 11.2622 18.5036C11.2634 18.6364 11.2381 18.7681 11.1878 18.891C11.1375 19.0138 11.0633 19.1255 10.9694 19.2194C10.8755 19.3133 10.7638 19.3875 10.641 19.4378C10.5181 19.4881 10.3864 19.5134 10.2536 19.5123C10.1208 19.5111 9.9896 19.4835 9.86759 19.4311C9.74559 19.3787 9.63525 19.3025 9.543 19.207L0.335999 10L9.543 0.793C9.73053 0.605529 9.98483 0.500214 10.25 0.500214C10.5152 0.500214 10.7695 0.605529 10.957 0.793Z" fill="white"/>
</svg>
