<svg width="48" height="48" viewBox="0 0 48 48" fill="none" xmlns="http://www.w3.org/2000/svg">
<path d="M24.3 31.35C25.6667 31.35 26.8333 30.875 27.8 29.925C28.7667 28.975 29.25 27.8167 29.25 26.45V13.85H35.05V10.85H27.25V22.7C26.8833 22.4 26.4417 22.1667 25.925 22C25.4083 21.8333 24.8667 21.75 24.3 21.75C23 21.75 21.9 22.2083 21 23.125C20.1 24.0417 19.65 25.15 19.65 26.45C19.65 27.7833 20.1 28.9333 21 29.9C21.9 30.8667 23 31.35 24.3 31.35V31.35ZM13 38C12.2 38 11.5 37.7 10.9 37.1C10.3 36.5 10 35.8 10 35V7C10 6.2 10.3 5.5 10.9 4.9C11.5 4.3 12.2 4 13 4H41C41.8 4 42.5 4.3 43.1 4.9C43.7 5.5 44 6.2 44 7V35C44 35.8 43.7 36.5 43.1 37.1C42.5 37.7 41.8 38 41 38H13ZM13 35H41V7H13V35ZM7 44C6.2 44 5.5 43.7 4.9 43.1C4.3 42.5 4 41.8 4 41V10H7V41H38V44H7ZM13 7V35V7Z" fill="white"/>
</svg>
