<svg width="24" height="24" viewBox="0 0 12 20" fill="none" xmlns="http://www.w3.org/2000/svg">
<path d="M1.04291 19.2296C0.855438 19.042 0.750124 18.7877 0.750124 18.5226C0.750124 18.2574 0.855438 18.0031 1.04291 17.8156L8.83591 10.0226L1.04291 2.22956C0.947399 2.13732 0.871219 2.02697 0.81881 1.90497C0.7664 1.78296 0.738813 1.65174 0.737659 1.51896C0.736506 1.38618 0.761807 1.25451 0.812088 1.13161C0.862369 1.00871 0.936623 0.897062 1.03052 0.803169C1.12441 0.709276 1.23606 0.635023 1.35896 0.584742C1.48185 0.53446 1.61353 0.509159 1.74631 0.510313C1.87909 0.511467 2.01031 0.539055 2.13231 0.591463C2.25432 0.643871 2.36466 0.720053 2.45691 0.815563L11.6639 10.0226L2.45691 19.2296C2.26938 19.417 2.01507 19.5224 1.74991 19.5224C1.48475 19.5224 1.23044 19.417 1.04291 19.2296Z" fill="white"/>
</svg>
